<svg height="550" viewBox="0 0 547 550" width="547" xmlns="http://www.w3.org/2000/svg"><g fill="none" fill-rule="evenodd"><path d="m234.609893 483.768525c6.298533 1.143979 12.650275 2.015265 19.021969 2.587254 6.268198.558038 11.567822 3.281126 16.164445 8.360724l.343432.385391 2.94641 3.272311 2.873249-3.278962c4.574616-5.184565 9.813941-8.014165 16.039134-8.680258l.468743-.045904c6.378345-.57864 12.730087-1.449926 19.02862-2.580603 1.237093-.232786 2.394374.379109 3.092733 1.529739.718312 1.157281.77152 2.620509.079812 3.764488-3.462632 5.777194-7.270962 11.486382-11.393601 17.070021l-1.037189 1.393261-2.833342 3.697977c-2.969124 3.797868-2.621793 9.356403 1.167626 12.51717l.222441.179662 3.817696 2.933108c6.318486 4.728888 12.956222 9.205037 19.92651 13.435097 1.263697.758219 1.835687 2.035218 1.496484 3.491795-.352505 1.363463-1.509786 2.414327-3.119337 2.713624-8.194079 1.489833-16.428065 2.613858-24.735211 3.352123-8.176705.73623-15.510942-1.591063-21.258712-6.550484l-.357163-.313387-3.478493-3.152592-3.571607 3.145941c-5.806357 5.181159-13.268822 7.62209-21.629177 6.85722-8.280542-.738265-16.534481-1.875593-24.72856-3.365425-1.616202-.299297-2.773483-1.350161-3.112686-2.713624-.246088-1.443275.312599-2.706972 1.589598-3.465191 6.403415-3.91081 12.540474-8.036973 18.379789-12.368025l1.453607-1.087025 3.817696-2.926457c3.934905-3.067007 4.412501-8.611752 1.570984-12.4758l-.167615-.221032-2.826691-3.697977c-4.496102-6.039143-8.619745-12.198004-12.357629-18.456631-.685057-1.143979-.625198-2.607207.006651-3.77779.70501-1.157281 1.942103-1.749223 3.099384-1.529739zm119.525808 31.080302c6.285231 2.986316 12.789947 5.726544 19.507496 8.214032 1.276999.465573 1.92215 1.562994 1.909972 2.839993-.041031 1.190536-.905666 2.321213-2.116155 2.800088-6.817314 2.69367-13.734394 5.121299-20.731286 7.24298-7.083356 2.154937-13.927274 1.456578-19.966417-1.995311-6.198767-3.538353-12.144796-7.282887-17.851386-11.233604-1.064167-.731614-1.429974-1.868942-1.170583-3.106035.25939-1.21714 1.250395-2.041868 2.494139-2.268004 5.824314-1.023595 11.616305-2.257296 17.351728-3.696254l1.909679-.487249c6.438205-1.682713 12.543858-1.137327 18.662813 1.689364zm-143.516103-1.72927c6.384997 1.669411 12.843155 3.079431 19.34787 4.216758 1.250395.226135 2.141635 1.030911 2.394374 2.261353.365807 1.250395-.099766 2.36777-1.170583 3.106035-5.69994 3.937415-11.652619 7.681949-17.858037 11.226953-6.039143 3.431935-12.783296 4.156899-19.860001 1.995311-7.003543-2.128332-13.913972-4.542659-20.731286-7.23633-1.316905-.51878-2.068473-1.616202-2.214796-2.833342-.026604-1.28365.731615-2.341165 1.895546-2.846644 6.764106-2.480837 13.302077-5.201112 19.620563-8.180777 6.025841-2.839994 12.131494-3.385379 18.57635-1.709317zm188.058107-18.263751c6.744152 1.709317 13.654581 3.13929 20.717984 4.303222 1.323556.212833 2.194842 1.15728 2.414327 2.414327.172927 1.177233-.425667 2.447582-1.636156 3.232404-6.132257 3.910811-12.404186 7.588835-18.862344 11.014119-6.504716 3.465191-13.348634 4.116993-19.939813 1.888895-6.777408-2.268004-13.341983-4.802049-19.693724-7.582183-1.190536-.505479-1.749223-1.556343-1.749223-2.813389.013302-1.263698.831379-2.234749 1.935452-2.667067 5.531003-2.136978 10.997359-4.484063 16.379671-7.017011l1.790965-.851167c5.992586-2.899853 12.10489-3.518399 18.642861-1.92215zm-233.092389 1.638278.485628.230664c5.952679 2.853295 12.011775 5.507059 18.163985 7.868178 1.183885.472224 1.908848 1.403369 2.009708 2.706972.012208 1.257047-.652896 2.268005-1.843432 2.793437-5.82243 2.548456-11.823698 4.873363-17.99356 6.984968l-1.686862.570611c-6.504715 2.261353-13.348634 1.616202-19.873302-1.848989-6.458158-3.438586-12.763343-7.149866-18.928855-11.08728-1.197187-.76487-1.735921-1.988661-1.636156-3.205801.232787-1.263697 1.183885-2.161587 2.507442-2.374421 7.063402-1.150629 13.980482-2.593904 20.717984-4.309872 6.290085-1.585464 12.246461-1.036455 18.07742 1.671533zm189.727619-20.22793c.804776.931145 1.104072 2.088426.691708 3.225754-2.221447 6.112304-4.755492 12.231259-7.628741 18.283704-2.793436 5.899471-7.568881 9.856838-13.907321 11.506296-6.265278 1.642806-12.577113 3.019571-18.942157 4.143597-1.250395.199531-2.427629-.31925-3.052826-1.403369-.611896-1.010958-.6385-2.281306.06651-3.318868 3.830998-5.540315 7.349397-11.173745 10.561849-16.860382 3.125988-5.553617 7.349397-9.058715 12.922967-10.748078 5.520362-1.669411 10.974213-3.58491 16.348252-5.693289.964401-.399062 2.108379-.073161 2.939759.864635zm-161.49386-.884588c5.374039 2.108379 10.82124 4.030529 16.341601 5.69994 5.426897 1.657858 9.491787 4.99931 12.587608 10.306777l.248896.434649c3.212452 5.693289 6.730851 11.313417 10.555198 16.853731.711661 1.044213.784822 2.334515.06651 3.332171-.625197 1.084119-1.722619 1.616202-2.973014 1.41002-6.391648-1.130677-12.743389-2.520744-19.015318-4.16355-6.210592-1.6063-10.907808-5.450869-13.650212-11.104707l-.183948-.388287c-2.88655-6.065747-5.4472-12.198005-7.695251-18.310309-.345854-1.110723-.113068-2.30791.70501-3.225753.891239-.911192 1.975358-1.257046 3.01292-.844682zm198.5867-18.622907c.971052.758218 1.489833 1.822384 1.296953 3.032873-1.004307 6.424903-2.327863 12.909665-3.977321 19.401079-1.582947 6.34509-5.520362 11.14714-11.433135 14.000435-5.839611 2.800087-11.805593 5.400643-17.87134 7.735158-1.077468.419015-2.354467.113067-3.172545-.824729-.818077-.857984-1.077468-2.121681-.571989-3.278962 2.469198-5.639526 4.647782-11.329351 6.586983-17.013121l.522977-1.549927c2.001962-6.052444 5.453851-10.309109 10.601755-13.042686 5.074742-2.700321 10.036417-5.606825 14.885023-8.706209.931146-.605244 2.141635-.525432 3.132639.246089zm-235.566472-.305948c4.86856 3.112686 9.856838 6.025841 14.964836 8.746115 5.12795 2.740228 8.599792 6.996893 10.521942 13.009431 2.04852 6.198768 4.402988 12.410838 7.096658 18.57635.498828 1.157281.31925 2.43428-.485526 3.298915-.911192.911192-2.095077 1.257046-3.272311.791474-6.052444-2.327864-12.005124-4.92842-17.858037-7.74846-5.781378-2.783386-9.667858-7.442594-11.242871-13.529971l-.103801-.417256c-1.649457-6.491414-2.959712-12.982827-3.97732-19.414381-.206183-1.197187.246088-2.30791 1.237093-3.079431 1.050864-.718312 2.188191-.844681 3.119337-.232786zm281.691423 10.222646c6.950335.405713 14.007086.492177 21.176906.285994 1.323556-.039906 2.361118.718313 2.813389 1.908848.405713 1.130677.039906 2.487489-.984354 3.478493-5.274273 5.008232-10.728125 9.816933-16.381507 14.406149-5.739846 4.649076-12.311072 6.584528-19.21485 5.666685-7.063402-.931145-14.013737-2.148285-20.771192-3.644769-1.270348-.285995-2.035218-1.197187-2.254702-2.447582-.226135-1.243744.359156-2.334515 1.376765-2.986316 5.022199-3.154588 9.936651-6.513894 14.723962-10.024585l1.591035-1.175764c5.327481-3.990623 11.206999-5.779752 17.924548-5.467153zm-313.457622 5.0686.433157.318741c5.294227 3.937414 10.721474 7.701902 16.314997 11.21365 1.077468.691708 1.609552 1.742572 1.449927 3.039525-.219485 1.237093-1.064167 2.095077-2.327864 2.381071-6.212624 1.377874-12.559377 2.521021-19.014645 3.414073l-1.763198.237347c-6.810663.964401-13.401842-.977702-19.128386-5.620127-5.6932891-4.609169-11.1604425-9.451125-16.467971-14.47931-1.0109578-.991005-1.3102546-2.274655-.9843537-3.478493.4589216-1.190536 1.569645-1.882244 2.9065037-1.848989 7.1631682.219485 14.21992.133021 21.163604-.272692 6.47128-.355921 12.205884 1.328186 17.418229 5.095204zm300.035827-41.256899c1.104072.552036 1.822384 1.503134 1.86229 2.720274.226136 6.504716.166276 13.12915-.206182 19.820094-.352505 6.524669-3.305566 11.985171-8.539933 15.922586-5.221065 3.870904-10.561849 7.568881-16.068908 11.02077-.971052.625198-2.294609.565339-3.285613-.199531-.931146-.691708-1.456578-1.862291-1.170583-3.092733 1.335196-6.02972 2.385367-12.025908 3.191498-17.978318l.213833-1.622291c.783598-6.152211 3.257093-10.910886 7.573978-14.54617l.35406-.292297c4.462847-3.624816 8.792673-7.429209 12.962874-11.393228.804775-.778172 1.98866-.931146 3.112686-.359156zm-300.966132.279343c4.190154 3.977321 8.526631 7.81497 13.016081 11.446437 4.410164 3.581234 6.979095 8.272252 7.798889 14.30636l.062639.4922c.818077 6.484763 1.942103 13.029384 3.392029 19.587308.279344 1.237093-.152974 2.460884-1.110723 3.159243-1.064166.718312-2.301259.83138-3.352124.146323-5.507059-3.45854-10.847843-7.163168-16.055606-11.034073-5.124551-3.843413-8.048985-9.162049-8.443778-15.433646l-.022994-.42908c-.372458-6.697595-.432317-13.322029-.212833-19.820094.039906-1.223791.691708-2.221447 1.809083-2.793436 1.170582-.505479 2.301259-.405713 3.119337.372458zm372.132241-1.749223c.598593 1.02426.498828 2.440931-.325901 3.591561-4.236711 5.932726-8.653001 11.699176-13.341983 17.272746-4.728888 5.646732-10.834541 8.819277-17.784876 9.22499-7.103309.432318-14.146758.558688-21.070489.365807-1.296953-.033255-2.221447-.784822-2.68702-1.955405-.465572-1.177234-.079812-2.387723.778172-3.2058 4.8087-4.496102 9.431172-9.22499 13.874066-14.106852 4.482799-4.921769 9.923349-7.795017 16.574387-8.77272 6.883824-.924494 13.834159-2.194842 20.811099-3.764488 1.276999-.206182 2.480837.272693 3.172545 1.350161zm-443.1985852-1.376765c6.9968923 1.569645 13.9339252 2.833343 20.8310519 3.764488 6.5978299.904541 12.011775 3.771139 16.4879238 8.699558 4.4362425 4.888513 9.0720162 9.61075 13.8740655 14.120154.931146.877937 1.243744 2.021916.851333 3.26566-.45227 1.170583-1.456577 1.862291-2.75353 1.902197-6.3003468.163253-12.6886416.068159-19.1398988-.275286l-1.9372411-.110474c-6.8638715-.345854-12.9628735-3.498446-17.7117149-9.151829-4.702284-5.600174-9.1584796-11.393228-13.4084931-17.352559-.8180777-1.15728-.8513329-2.480837-.3059477-3.598211.6850569-1.090771 1.9021969-1.549692 3.2124514-1.263698zm399.1354562-29.184756c1.203838.325901 2.035218 1.203838 2.361119 2.327864 1.456577 6.331788 2.653764 12.849806 3.571608 19.494193.89789 6.464809-.95775 12.390884-5.360737 17.246142-4.383035 4.808701-8.925694 9.457777-13.661233 13.880717-.851333.811427-2.134983 1.004307-3.26566.438969-1.064166-.492177-1.79578-1.549692-1.755874-2.820041.164613-6.169946.060968-12.261651-.280198-18.254621l-.098911-1.631983c-.412364-6.358393 1.210489-11.599411 4.955024-16.07556 3.697977-4.402987 7.209725-8.978901 10.555197-13.661232.6385-.924494 1.795781-1.28365 2.979665-.944448zm-355.298463.851333c3.352123 4.702284 6.883825 9.298152 10.601755 13.721092 3.643331 4.355172 5.27182 9.440724 4.940603 15.520083l-.032137.508919c-.438968 6.518018-.571989 13.155754-.412364 19.886605.033255 1.257046-.611896 2.381072-1.682713 2.873248-1.177234.505479-2.401025.37911-3.325519-.492176-4.74219-4.442894-9.2781984-9.098621-13.6545815-13.887368-4.2964196-4.751411-6.1599642-10.525519-5.3547381-16.757415l.0605116-.435519c.9045412-6.637736 2.1083791-13.155754 3.5716076-19.487542.2660415-1.190536 1.1173744-2.055171 2.3079102-2.394374 1.2437442-.272693 2.3278634.026604 2.9796652.944447zm17.636519-45.230062c20.696356 40.466086 56.806508 73.057365 103.45331 88.213829 1.050508.341331 1.62541 1.469639 1.284079 2.520147s-1.469639 1.62541-2.520147 1.284079c-47.151063-15.320309-83.773047-48.062904-105.054635-88.785046.977935-1.03183 1.92319-2.110165 2.837393-3.233009zm337.915847-50.620629c-1.472205 8.615153-3.584628 17.229691-6.365226 25.787491-18.195126 55.998839-61.718999 98.825327-116.62974 116.792256-1.049801.343498-2.179293-.229075-2.522791-1.278876-.343497-1.049802.229075-2.179294 1.278876-2.522791 53.709202-17.573783 96.273333-59.455907 114.069429-114.226657 2.482369-7.639948 4.420239-15.326131 5.835007-23.016555l.781847-.256009.728766-.244047c1.169997-.396679 2.115989-.7428 2.823832-1.034812zm69.309306 79.961361c.804776.89789.971052 2.294608.399063 3.591561-3.039525 6.66434-6.311836 13.208962-9.856839 19.60726-3.531701 6.371695-8.912391 10.635011-15.669846 12.370932-6.883825 1.789129-13.767649 3.245706-20.611568 4.383034-1.209788.207932-2.276313-.228825-2.911159-1.236756l-.101761-.173264c-.678406-1.077469-.525432-2.321213.166276-3.292264 3.483814-4.806706 6.779071-9.758869 9.905165-14.812853l1.035793-1.688373c3.345652-5.532945 7.975766-9.340681 14.025118-11.508976l.507401-.176898c6.611132-2.261353 13.182357-4.855258 19.773536-7.775064 1.177234-.452271 2.480838-.219484 3.338821.711661zm-494.0125167-.738265c6.5512726 2.88655 13.1291495 5.4472 19.7136773 7.681949 6.1412452 2.096695 10.8343227 5.805263 14.2507665 11.248229l.2817521.457598c3.4385868 5.620128 7.0767047 11.14714 10.9343069 16.494575.7515673 1.037562.8380308 2.221447.2194843 3.372077-.6717549 1.064166-1.7824783 1.54304-3.0195714 1.41002-6.2277904-1.064167-12.4885611-2.397672-18.7823122-3.985526l-1.8891147-.483972c-6.6909445-1.649458-12.0716344-5.906122-15.643242-12.370931-3.5450033-6.398299-6.8173142-12.956223-9.8368855-19.620563-.5919424-1.290302-.3724582-2.600556.3791091-3.578259.8712861-.944447 2.1615875-1.163931 3.3920296-.625197zm444.7280227-20.821485.206483.010386c1.21714.106417 2.208145.798125 2.746879 1.842338 2.40823 5.468816 4.654387 11.110882 6.661627 16.915953l.541447 1.587235c2.154937 6.105653 1.46988 12.277817-1.92215 17.877991-3.378727 5.553617-6.950335 10.987515-10.768031 16.241835-.665103.951099-1.908848 1.390067-3.112685 1.044213-1.190536-.212833-2.061822-1.190536-2.254702-2.420978-1.130677-6.644387-2.520744-13.142451-4.183503-19.460938-1.572522-5.998877-1.054644-11.317744 1.547505-16.238409l.221671-.409139c2.793436-5.054789 5.374039-10.222646 7.768412-15.476966.427145-.967357 1.38822-1.537232 2.547047-1.513521zm-391.6379273 11.014361c1.0113572 1.975333 2.0555419 3.934679 3.1311309 5.87636 2.8200402 5.101346 3.4186337 10.555198 1.7558741 16.6542-1.6494575 6.338439-3.0395245 12.856457-4.1302948 19.514146-.2593904 1.177234-1.1240254 2.148286-2.2480509 2.43428-1.2703483.272693-2.440931-.099765-3.1791963-1.117374-3.8110449-5.260972-7.3959545-10.688219-10.7547288-16.235185-3.314938-5.485897-4.0445493-11.511727-2.0584705-17.475335l.1429715-.415958c.8475218-2.485194 1.7359419-4.942783 2.6620533-7.369958l.7016963-1.813521.8376721.099537.3566443.039322.7829041.075731.8123468.065883.759393.050031.5646446.029691c1.0103427.048709 2.0303928.068405 3.0597314.059097l.9658067-.017271.3029293-.008777.9419012-.037989.5007879-.026626.7530012-.048265.8502794-.066405.748733-.068798.7708698-.080851zm457.2041633-39.137867c.944448.731614 1.403369 2.075124 1.057515 3.451889-1.662759 7.129913-3.65142 14.180014-5.872867 21.150302-2.274655 7.030147-6.704246 12.158098-13.002779 15.157716-6.431554 3.07278-12.896364 5.826309-19.394428 8.26724-1.15308.428467-2.264374.218213-3.085056-.664692l-.134046-.153385c-.864635-.917844-.977703-2.17489-.478875-3.252358 2.780134-5.985934 5.280924-12.10489 7.568881-18.290355 2.239063-6.083004 6.039629-10.705247 11.554852-14.001506l.463574-.271622c6.025841-3.491795 12.025078-7.309491 17.911247-11.446437 1.077468-.658453 2.381071-.685057 3.411982.053208zm-526.502839-.079812c4.7220143 3.29418 9.5085249 6.390571 14.342246 9.271887l.5506656.953619.4906063.825109.4931471.807157.5272515.83953.5527898.855266.5312527.798884.5728909.837279.5455909.774957.5431688.750638.5352882.7201.6352146.830208.2438444.311879.5715124.716611.4551072.556604.4792428.573048c.9093842 1.074879 1.8425656 2.108426 2.7989344 3.099708l.2289014.235996c.4886711.501138.9833803.991346 1.4840193 1.470473l.8798362.825006.276685.252524.3657956.328883c.3761331.335295.7554315.664563 1.1378497.987743l.7854359.65163.6846582.548592.5437176.4231c1.9092406 4.950634 3.9645006 9.854745 6.1963439 14.677025.5254321 1.15063.3857603 2.334515-.4323175 3.345473-.871286.904541-2.0485197 1.177233-3.2324045.811426-5.9565591-2.261907-11.9019406-4.786484-17.8207758-7.5891l-1.613558-.771255c-6.2453249-2.906503-10.7081716-8.127569-12.9894777-15.164367-2.2413999-6.976939-4.2034562-14.020389-5.8728668-21.150302-.31504918-1.304303.09816269-2.495189.94556644-3.227692l.14520383-.11778c1.01095782-.864635 2.32121233-.83138 3.41863363-.059859zm477.238599-10.329063c3.398076 4.861305 6.636747 9.925988 9.706018 15.19405l.91569 1.58652c3.298915 5.566919 3.811045 11.759036 1.562994 17.911246-2.248051 6.0857-4.715586 12.10489-7.455814 17.997709-.472224 1.064167-1.6029 1.72927-2.853295 1.629505-1.203838.013302-2.2414-.778172-2.680369-1.962057-2.354467-6.298533-4.974976-12.397535-7.821621-18.270402-2.704995-5.591186-3.256628-10.836071-1.624268-16.2125l.141087-.44835c1.755874-5.50706 3.312217-11.073979 4.649075-16.694106.246089-1.077469 1.143979-1.862291 2.394374-2.001963 1.230442-.12637 2.334515.352505 3.066129 1.270348zm-440.1436642 43.474264.4078493.231416.9285635.508392.432346.228098.4973601.255743.6141827.306132.7144159.342848.0865117.040563c.9078997.42461 1.8280161.821119 2.7599507 1.189038l.9046746.346788.7649182.277235.6858545.236354.875313.285139.6764487.207881.8028388.232844c-.5469689 1.380183-1.0810597 2.772179-1.6024312 4.174285-.4788748 1.097422-1.5031346 1.875593-2.6737174 1.948755-1.2969524.026604-2.3744206-.565339-2.8932016-1.702666-1.0934307-2.357128-2.1442948-4.734475-3.1555718-7.128211zm495.8328072-84.89693c1.064166.532083 1.749223 1.769176 1.702666 3.185847-.285995 7.289538-.844682 14.585727-1.72927 21.848661-.851333 7.329444-4.236711 13.208962-9.796979 17.35921-5.739846 4.269967-11.559505 8.214032-17.472278 11.838848-1.033361.655302-2.168202.665915-3.138728-.041681l-.160187-.124595c-1.030911-.731614-1.376765-1.955405-1.104072-3.106035 1.394722-5.770441 2.606276-11.594755 3.591022-17.453548l.319788-1.954181c1.010258-6.398299 3.849137-11.667897 8.645569-15.956147l.393192-.345548c5.260972-4.595868 10.395573-9.47773 15.377201-14.652237.931145-.857984 2.214795-1.124026 3.372076-.598594zm-33.089223 19.230157c1.558209 3.577484 2.02148 7.534336 1.350469 11.697171-1.004307 6.40495-2.294609 12.783296-3.830998 19.095131-.272693 1.130676-1.257047 2.001962-2.480838 2.141634-1.197187.25274-2.347816-.332552-3.01292-1.396718-3.545003-5.739846-7.289538-11.206999-11.213651-16.434715-1.164462-1.550595-2.115081-3.109179-2.855406-4.689946l.847018-.09611.731094-.091637.676983-.091866c.437927-.061547.871838-.130617 1.301752-.207136.471928-.084.938835-.176932 1.400957-.278735l.465884-.106013.748434-.184691.567716-.15219.592081-.170117.591219-.181749.793308-.263029.557101-.198186.823343-.31389.706607-.289956.494384-.214509.398919-.18024.517054-.243331.652318-.323017.749424-.39386.44209-.244096.644236-.371809.563399-.341248.677505-.430908.617483-.412925.388713-.270124.741844-.538074.484751-.368086.456463-.358915.445912-.362465.587032-.495578.48535-.426039.558277-.508945.528469-.501038.275525-.268884c.178106-.175541.355029-.35329.530699-.533161zm-506.30997919-18.658168c2.69719973 2.776318 5.43717909 5.469021 8.21468089 8.077058-.006455.51083-.0098155 1.021351-.010054 1.531481l.0023338.889461c.0059231.876229.0211077 1.751149.0456948 2.624342.0568694 2.017036.1638135 4.024842.322667 6.018298l.1289037 1.492495c.0749677.804952.1585443 1.607509.250842 2.407153.1004839.870613.2113968 1.738422.3328106 2.602326.0610749.434571.12482.868699.1912221 1.302322l.1466019.929936.1683789 1.007755.1253548.714239.2912234 1.559774.1976476.991367.2331184 1.110626c.2928821 1.359107.6119677 2.709848.95687 4.050375l.3959809 1.493052.2565097.922119c.3550708 1.2539.7330241 2.497834 1.1334372 3.729868l.4391388 1.31995.3120441.902321.3959292 1.106108.3580766.965911c-2.2706906-1.554576-4.5267895-3.157979-6.7637983-4.810768l-1.674107-1.248861c-5.56026796-4.050482-8.94564643-10.023114-9.81693244-17.365861-.86463497-7.262933-1.42997322-14.552471-1.71596787-21.842009-.03325519-1.316906.64515071-2.553999 1.71596787-3.079431 1.15062962-.6385 2.43428-.372458 3.36542535.598593zm535.87415219-52.649618c1.15728.3259 2.055171 1.41002 2.274655 2.806738 1.104072 7.229678 1.92215 14.492612 2.454233 21.78215.525432 7.36935-1.676062 13.767649-6.351742 18.888949-4.815351 5.267622-9.777026 10.242599-14.871721 14.938232-.913643.83803-2.030243 1.061218-3.106629.556458l-.178984-.090886c-.322385-.14637-.598319-.339193-.827512-.566821l.451152-.927479.307325-.652914.538598-1.187847.304064-.696557.326049-.768944.223377-.540618.357849-.890485.353365-.910492c.362079-.94948.711481-1.917438 1.048444-2.903589l.412679-1.235822.244778-.760803.314226-1.009181c.162259-.530967.321186-1.06664.476817-1.606999l.342008-1.214206.222361-.819579.263915-1.005978c.147652-.573387.291771-1.15122.432478-1.7338.193615-.80164.379986-1.612789.559158-2.431946l.26333-1.234398.210405-1.03296.284909-1.472262.184469-1.003358.243932-1.395056.196009-1.184338c.431457-2.674783.793387-5.385737 1.087054-8.086248l.191372-1.8566c.184827-1.897006.335927-3.783423.453769-5.643187l.056149-.927547.070967-1.323375.021545-.447579c2.388845-3.303804 4.712889-6.697686 6.985951-10.180231.738265-1.02426 1.935452-1.529739 3.179196-1.230442zm-532.52202891 1.210489c3.91113021 5.945975 7.98632371 11.649136 12.25817431 17.083408l-.1454218.422411c-.3800013 1.113327-.7466799 2.238183-1.0996512 3.37343l-.3258442 1.06386-.3612549 1.218595-.3218906 1.123436-.2388162.858374-.216338.797499-.1803449.679182c-.3677427 1.400786-.7147773 2.813268-1.0404769 4.236032l-.267724 1.193688-.2543866 1.182693-.1338668.643228-.2413778 1.200641-.1596879.825962-.3889528 2.134795-.2170373 1.281272-.1435896.890209c-.2539114 1.607263-.4801625 3.221921-.6778447 4.841249l-.2036977 1.762948-.1288193 1.233577-.135974 1.439064c-1.8784474-1.907762-3.7356449-3.857993-5.5717222-5.849692l-1.37309993-1.501534c-4.68233093-5.021534-6.87052252-11.526249-6.33843946-18.882298.51878099-7.289538 1.35681181-14.559122 2.45423312-21.788801.20618218-1.303603 1.10407235-2.387723 2.261353-2.706973 1.27034831-.399062 2.46088416.113068 3.19249836 1.243745zm13.16240471-49.929345c2.6936705 6.644388 5.6201273 13.075942 8.7993236 19.261407 2.9996183 6.01919 3.7578366 12.025077 2.2813061 18.50984-.5386334 2.346209-1.0427481 4.702155-1.5123439 7.065577-.5667961.891126-1.1228856 1.802978-1.6678475 2.734361l-.6507494 1.131932-.4680893.835983-.56781 1.043331-.5812986 1.100272-.5297375 1.032791-.6311454 1.269875-.50705 1.05305-.4747262 1.013695-.3517929.76932c-.3058494.67574-.606234 1.357608-.9012759 2.045789l-.135035-.158508c-3.7678132-5.133493-7.3679648-10.496123-10.8107007-16.077646l-.9350329-1.527652c-3.63811789-5.832961-4.52935702-12.643624-2.60720697-19.780188 1.92880107-7.070054 4.13694577-14.053644 6.61778307-20.937468.4456196-1.237093 1.5363898-2.121682 2.7335767-2.214796 1.3169056-.152974 2.3943738.57864 2.8998527 1.829035zm505.9245272-1.789129c1.230442.186229 2.294608.984354 2.773482 2.314561 2.467536 6.890476 4.67568 13.860764 6.584528 20.924167 1.935452 7.143215 1.017609 13.854112-2.607207 19.800141-1.144653 1.860315-2.303601 3.697636-3.479123 5.51139-.032647-.592613-.069951-1.173686-.111902-1.742337-.065166-.882519-.141476-1.735534-.228963-2.555443l-.093429-.827362c-.049836-.417505-.102777-.825897-.158777-1.224357-.041438-.294847-.086283-.58935-.134484-.883452-.080113-.488824-.169504-.976563-.267937-1.462955l-.188713-.882046-.140069-.600151-.1907-.759077-.143543-.535161c-.096981-.352319-.198548-.703514-.304648-1.053624-.079913-.263696-.16242-.526847-.247461-.789341l-.191896-.578568-.212542-.611512-.295591-.806255-.24902-.644676-.166011-.414277-.252249-.608144-.292131-.675296-.286897-.636145-.263178-.56234-.273-.563838-.249195-.498761-.305844-.593051-.35013-.655214-.36044-.650337-.42516-.738386-.600145-.994597-.484279-.765909-.332647-.50877-.453029-.671833-.448159-.642292-.204357-.285924c-.182629-.253634-.367283-.505099-.554201-.754738l-.309173-.408559-.31305-.405035c-.10918-.139781-.218976-.278828-.329474-.417253l-.522199-.643219-.655928-.778216-.331096-.380915-.523958-.587274-.529039-.574492c2.41671-4.981026 4.678873-10.106117 6.79646-15.363393.545385-1.143979 1.629504-1.882244 2.906504-1.815734zm-458.7626214 18.576018.1668824.146655c.9577495.791473 1.3169056 1.935452.9577495 2.913155-.572625 1.58588-1.1254221 3.177425-1.6592181 4.774966l-.3984968.152693-.6502146.259264-.4817973.200727-.6837727.296731-.6818613.310146-.6727167.320003-.2232215.109768-.2451761-.137749-.3681026-.195392c-1.8529172-.952615-3.8986084-1.541398-6.4389517-1.827617l-.5147535-.053228-1.8726121-.176767-1.7551888.676192-.7827157.314573-.3328146.141684-.5597291.249012-.2651614.122683-.3962755.189023-.3506096.172939-.472388.241502-.7208862.387477-.3275324.183656-.4665919.269902-.2977704.177352-.3769662.230259c-.3077993.190639-.6142608.386895-.9193595.588682l-.6181598.41767-.6608234.466179-.3226899.235104-.4984473.372874-.6680166.518402-.2836407.22665-.4468572.365055-.2818199.235289-.3878208.330241-.3012807.261748-.504959.448989-.6187267.567927c-.358148.334469-.7136623.676456-1.0666904 1.025975l-.537634.540057-.3999446.411918-.7412576.786778-.5885248.646652-.7436576.845582-.2281507.265909c1.7341387-5.464076 5.3343908-9.621604 10.5729141-12.291754 5.9593303-3.039524 11.991822-5.76645 18.0309647-8.174126 1.0704259-.425666 2.1820929-.285741 3.0854753.45859zm260.4903984-97.9828555c50.628052 16.4500515 89.11691 52.9866185 109.510458 97.9201665-.281464 2.795685-.540629 5.572899-.778427 8.323757l-.008378-.019448c-19.067123-46.976012-57.968815-85.52738-109.959721-102.420249-90.02013-29.2493139-186.459321 17.096921-220.619382 104.03523-1.176566-.603198-2.39224-1.152245-3.643375-1.644454 34.983634-88.778352 133.518418-136.0812484 225.498825-106.1950025zm-242.0698302 60.2956995.136435.175632c.7914735.951099.9045412 2.141635.3724581 3.046176-2.959712 4.955023-5.739846 10.023114-8.2871937 15.204273-2.5872538 5.227716-6.7308507 8.805975-12.6901809 10.921005-6.1389083 2.261353-12.2911187 4.828654-18.3834698 7.728506-1.1107234.458922-2.4010248.305948-3.2856129-.45227-.9777026-.811427-1.3102545-2.068473-.8978901-3.252358 2.1615874-6.125606 4.5759143-12.151447 7.2097254-18.090824 2.6404622-5.912773 7.3294442-9.983208 13.6013733-11.772338 6.4515071-1.829035 12.8897121-3.345472 19.2880109-4.555961 1.1267641-.219093 2.1887209.14508 2.9363447 1.048159zm-45.7313328-27.901511.188437.016413c1.3102546.099765 2.2347489 1.030911 2.4808373 2.341165 1.3701139 7.030148 3.0129203 13.907321 4.9284194 20.591615 1.7891293 6.484762 1.3501607 12.610368-1.3302077 18.609605-2.6870194 6.012538-5.1279505 12.158098-7.3227931 18.383469-.4323175 1.203838-1.3767649 2.035218-2.6404622 2.095078-1.2570462.059859-2.2879571-.57199-2.8732485-1.66276-2.7130694-5.773655-5.2081787-11.720561-7.5058198-17.866332l-.621749-1.681069c-2.447582-6.418252-2.0285666-13.288775 1.2570463-19.913209 3.2390556-6.564575 6.7574548-12.982827 10.5086404-19.261407.6363994-1.058565 1.7981018-1.711214 2.9308999-1.652568zm466.3065 1.765636c3.757836 6.291882 7.262934 12.716785 10.495338 19.28136 3.278962 6.624434 3.664722 13.381889 1.263697 19.913208-2.267399 6.088724-4.71619 11.990558-7.371359 17.730489l-.110614.237987c-.230519-.17712-.462392-.351782-.695569-.523933l-.555017-.403246-.666532-.467332-.705598-.475048-.638442-.412792-.560226-.349148-.599657-.360414-.740647-.426473-.697587-.383108-.714385-.373953-.531324-.266218-.842706-.401651-.511392-.231547c-1.56573-4.10459-3.246427-8.170206-5.036319-12.188603-2.633811-5.921221-3.120557-11.880221-1.460236-18.08529l.14333-.517664c1.882244-6.717548 3.538353-13.614675 4.875211-20.678078.312599-1.237093 1.230442-2.148285 2.507442-2.341165 1.230442-.053208 2.440931.51213 3.152592 1.722619zm-23.829616 30.64544c4.932468 2.037647 8.695174 5.758627 10.973159 10.876992 1.296309 2.902038 2.530413 5.831192 3.704655 8.784336l-.42678-.113754-.574977-.143348-.594726-.136672-.723288-.150014-.496372-.09267-.317385-.054913-.62561-.097973-.560341-.076325-.564641-.065951-.608397-.058667-.619156-.04642-.436751-.024614-.474847-.019114-.593565-.012576-.448684-.001103-.594479.009795-.25961.008331-.476733.021755-.597153.039165-.120106.00949c-.321441.026117-.64312.058102-.964544.096012l-.584128.07548-.398338.059368-.592425.101004c-1.571694.288423-3.078638.729286-4.523494 1.317719l-.538916.22757-.202401.09013.675739-4.481687.414477-2.694214.650726-4.160009 1.371975-8.526799zm-374.121956-39.591087c1.223791 0 2.201494.678406 2.800087 1.769177.598594 1.097421.478875 2.294608-.212833 3.059477-3.870904 4.316524-7.568882 8.77272-11.067328 13.368587-3.538352 4.629123-8.2938444 7.362699-14.5923776 8.367006-6.4648092 1.010958-12.9628736 2.341166-19.4875421 3.983972-1.1838848.239438-2.4010248-.159625-3.132639-1.09077-.8047756-.964401-.8978902-2.254702-.2527394-3.345472 3.2789618-5.560268 6.79071-11.007469 10.4886873-16.301695 3.7844407-5.367388 9.1451776-8.480074 15.6698461-9.005506 6.6776424-.585291 13.2754727-.838031 19.7868387-.804776zm366.764853-33.3682585c4.881863 5.4338983 9.54424 11.0806295 13.973832 16.8869865 4.383182 5.742358 6.140212 12.222329 5.10322 18.855473l-.075035.452491c-1.130677 7.030147-2.567301 13.927274-4.269967 20.644822-.312599 1.257047-1.210489 2.081775-2.454233 2.274656-1.303603.086463-2.36777-.458922-2.992967-1.556343-3.028883-5.111988-6.224773-10.132392-9.587671-15.022421l-1.127152-1.625128c-3.817696-5.440549-5.413945-11.379927-4.848607-18.004361.585292-6.937033.911193-13.987133.911193-21.1503014 0-1.3435097.718312-2.4209779 1.935452-2.8532954 1.210489-.2859946 2.494139.0465573 3.431935 1.0974213zm-403.465282-1.1107233c1.2038379.4190154 1.9953115 1.4233221 1.9953115 2.7668319 0 7.1631679.3125988 14.2199199.9178433 21.1503019.5121299 6.704246-1.0974213 12.636972-4.9151173 18.084173-3.4000107 4.830649-6.6276266 9.795981-9.6731503 14.866906l-1.0084171 1.694179c-.6318487 1.110723-1.735921 1.742572-2.9863162 1.549692-1.2570462-.19288-2.1349833-1.004307-2.5074414-2.188192-1.7026658-6.717548-3.132639-13.608024-4.2699666-20.644822-1.1240254-6.870523.6118955-13.508259 5.0880443-19.374475 4.4428935-5.819658 9.0986203-11.4464367 13.9871334-16.893637.8912392-.9777027 2.2413999-1.383416 3.3720764-1.0109578zm383.159663 35.3502678c6.47146.485526 11.832197 3.591561 15.616638 8.958949 2.912907 4.170991 5.71109 8.436219 8.375254 12.786037l-.374209-.261506-.471002-.312069-.413586-.259376-.310674-.186971c-2.128553-1.259358-4.758744-2.312883-7.63817-3.117449-5.632097-1.573715-11.685604-2.097132-16.524621-1.124011l-.496189.106025-.646386.156361c-.675425.175985-1.273972.396269-1.810146.659118-.081936.040171-.162163.081202-.240994.123214-.794198.423261-1.446695.946158-2.009908 1.562413-.152577.166937-.298753.34092-.439407.521643-.130391.167862-.250982.334048-.367953.505475-.13938.204263-.273705.416109-.40413.635257-1.141873-.977425-2.187688-2.093044-3.144631-3.347342-3.505097-4.602519-7.196424-9.072017-11.054026-13.368587-.764869-.838031-.818078-1.968708-.272692-3.132639.598593-1.08412 1.622853-1.715968 2.839993-1.715968 6.511366-.033255 13.122498.239437 19.786839.811426zm-14.758654-26.5376422c4.67568 4.5160552 9.171782 9.2050372 13.475003 14.0735972.831385.944447.917844 2.18154.385761 3.338821-.532084 1.050864-1.676062 1.669411-2.919806 1.6029-6.717549-.379109-13.368587-.432317-19.899907-.212833-6.318486.279344-11.512947-1.503135-15.849424-5.38069-4.329826-3.857602-8.792672-7.528975-13.408493-11.014119-.89789-.685057-1.157281-1.782479-.857984-3.0129206.38576-1.1905359 1.276999-1.9886605 2.467535-2.2280979 6.391648-1.2769993 12.929619-2.261353 19.593959-2.9863161 6.431554-.7449163 12.29777 1.2703483 17.013356 5.8196584zm-319.688805-5.8795178c6.664341.7116611 13.208962 1.7093169 19.587308 2.9863162 1.197187.2394374 2.028567 1.0974213 2.394374 2.2879572.372458 1.1705826.039906 2.3278636-.784823 2.9663626-4.108864 3.097906-8.096859 6.337701-11.959315 9.714713l-1.442527 1.272803c-4.35643 3.890857-9.557542 5.673335-15.942539 5.4472-6.518017-.232786-13.155753-.172927-19.8866041.206182-1.2437441.073162-2.3278633-.625197-2.8665974-1.662759-.5919424-1.104073-.4323175-2.407676.3990623-3.345473 4.2899196-4.855258 8.7527662-9.510984 13.4151442-14.0004352 4.722237-4.5559612 10.588453-6.5712258 17.086517-5.8728668zm316.077291-37.4187412c5.819659 4.4229404 11.492994 9.0520631 16.940194 13.9206231 5.384681 4.8188989 8.34033 10.8332374 8.587164 17.5331873l.012629.4578711c.219484 7.123262.133021 14.1467587-.259391 21.0771407-.06651 1.303603-.791473 2.274655-1.962056 2.687019-1.270348.352505-2.394374.013302-3.245707-.944447-4.363081-4.941722-8.938995-9.717167-13.694487-14.2930816-4.64638-4.5040112-7.347177-9.8391447-8.126898-16.225944l-.06053-.5346724c-.724964-6.9104288-1.775828-13.907321-3.125988-20.9241664-.259391-1.3302076.246088-2.5340455 1.35016-3.1725452 1.130677-.518781 2.454234-.4323175 3.58491.4190154zm-325.960734-.4256664c1.110724.6384996 1.696015 1.7891293 1.436625 3.1126859-1.363463 7.0234964-2.401025 14.0004355-3.132639 20.9108642-.778172 6.6909445-3.485144 12.2113063-8.267241 16.8337778-4.7288882 4.5493107-9.2915004 9.2915007-13.6412794 14.2132687-.8446819.95775-2.0352177 1.370114-3.2324046.951099-1.1838848-.425667-1.9620563-1.330208-2.0285667-2.627161-.3924112-6.92373-.4855258-13.9472268-.2660415-21.0771398.2061822-6.956986 3.1725452-13.1358005 8.6796049-18.0442667 5.4671535-4.86856 11.1205363-9.5043337 16.9534963-13.9139721 1.037562-.7981246 2.440931-.9444474 3.498446-.359156zm293.00484 14.6788414c5.4472 3.5317013 10.754728 7.2895379 15.915934 11.2469057.997656.7582183 1.323557 1.9487542 1.02426 3.1991494-.339203 1.1240254-1.330208 1.9554052-2.573952 2.1283322-6.670991.9178433-13.19566 2.1017281-19.560703 3.5782586-6.158862 1.4765305-11.586109.7249632-16.594341-2.2413999-4.968325-2.9663631-10.063021-5.7065908-15.244179-8.2539385-.997656-.4921768-1.483182-1.5164367-1.416672-2.780134.146323-1.2437441.871286-2.2081447 2.001963-2.6670663 5.511494-2.2801976 11.190649-4.3312577 17.042589-6.1736723l1.600271-.4973191c6.15221-1.9753583 12.29777-1.1040723 17.80483 2.4608842zm-245.742562-2.5074414c6.40495 1.9687073 12.61702 4.1968051 18.649511 6.6842934 1.130677.4522706 1.769177 1.4565774 1.908848 2.7003215.139672 1.2237911-.405713 2.2879572-1.336858 2.7402278-5.201112 2.5340456-10.262552 5.2875754-15.250831 8.2406364-5.008232 2.9730141-10.448781 3.7245814-16.667502 2.2946082-6.365043-1.4765305-12.87641-2.6604153-19.554052-3.5915607-1.250396-.1596249-2.181541-1.057515-2.500791-2.1815405-.379109-1.1971869.019953-2.427629 1.037562-3.1991494 5.114649-3.9374147 10.402224-7.6752982 15.82282-11.1870464 5.50706-3.5649565 11.652619-4.4428935 17.891293-2.5007903zm233.923667-39.3142871c6.571225 3.2058004 13.002779 6.7042465 19.274708 10.4288279 6.223599 3.6873356 10.278873 9.0470149 11.811431 15.575427l.100579.4469242c1.576296 6.956986 2.806738 13.8873679 3.751185 20.7445883.172927 1.2969525-.345854 2.3810717-1.423322 3.0262224-1.170582.5719893-2.341165.4655727-3.352123-.3192498-5.247669-4.0238782-10.628359-7.8415741-16.162023-11.4331348-5.593523-3.6181648-9.311453-8.51998-11.260208-14.8783726-2.028566-6.6510382-4.389685-13.3153785-7.076704-19.9531147-.498828-1.2437442-.239438-2.5207435.724963-3.3654254 1.010958-.7249631 2.327863-.9045412 3.611514-.2726925zm-236.371249.2726925c.951099.8446819 1.310255 2.081775.811427 3.3255192-2.693671 6.624434-5.048138 13.3020765-7.096658 19.9398126-1.988135 6.2428746-5.540057 11.0543803-10.895211 14.6371257l-.438158.2878042c-5.50706 3.5782585-10.881099 7.3826524-16.082211 11.3732754-1.010958.7781715-2.268004.9577495-3.358774.3125988-1.084119-.6451507-1.676062-1.6827127-1.509786-2.953061.95775-6.8705225 2.188192-13.7942533 3.764488-20.7512394 1.529739-6.784059 5.626778-12.3110718 11.985171-16.0689084 6.291882-3.7312324 12.723436-7.2163765 19.314615-10.428828 1.170583-.5786403 2.580603-.4389685 3.505097.3259009zm206.740873 20.0262762c6.025841 2.4209779 11.965218 5.0880443 17.771574 7.9745949 1.130677.5653382 1.676062 1.6760616 1.622854 2.959712-.106417 1.1639317-.937797 2.1748895-2.041869 2.6205091-6.391648 2.1615874-12.597067 4.5692632-18.589652 7.2363296-5.584715 2.5496845-10.923871 2.9082284-16.256391 1.1246414l-.444366-.1535898c-5.433898-1.9354522-10.95426-3.65142-16.52783-5.1412526-1.030172-.2701061-1.686593-1.1038055-1.83479-2.2377585l-.02085-.2031725c-.166276-1.2636973.352505-2.3544676 1.363463-3.0195714 5.427247-3.5915607 11.107234-6.9835902 17.006705-10.1428333 5.753148-3.0993839 11.872103-3.4585399 17.951152-1.0176089zm-162.697698.9910047c5.906122 3.1658942 11.586109 6.5645748 17.013356 10.1494844 1.017609.6584528 1.449927 1.7758272 1.356812 3.0129203-.099766 1.2370931-.838031 2.1815405-1.928801 2.4675352-4.930636 1.3242956-9.824487 2.8167558-14.653524 4.4820516l-1.807796.6325968c-5.480455 1.9554053-10.960911 1.6361554-16.780569-.9444474-5.959331-2.6737174-12.138145-5.1079974-18.50984-7.2695848-1.183884-.4123644-1.928801-1.4698795-2.021915-2.6271601-.139672-1.2437442.485525-2.3943738 1.529738-2.9198058 5.813008-2.8998527 11.739083-5.553617 17.764924-7.9745949 6.079049-2.440931 12.291118-2.1150302 18.037615.9910047zm143.030578-39.7466046c7.063403 1.8955459 14.066946 4.0637844 20.964073 6.5180175 6.795883 2.4257075 11.817683 6.8989233 14.574223 13.0279499l.18443.4204494c2.906504 6.5379706 5.50706 13.1025454 7.761762 19.6737712.332552 1.1905358.033255 2.3544675-.917843 3.2058004-1.030911.7914736-2.208145.8978902-3.352123.3192499-5.906122-2.9397589-11.938614-5.6467315-18.06422-8.1009646-6.172164-2.4874883-10.654964-6.5446217-13.90067-12.4374416-3.26566-6.1522103-6.877174-12.2246083-10.794635-18.2238448-.731615-1.1240254-.718313-2.4209779.152974-3.4252847.751567-.9244943 2.015264-1.3435097 3.392029-.9777026zm-137.92258.9510985c.784822 1.0309109.89789 2.3012592.166276 3.4252847-3.917462 6.0058875-7.522325 12.0782854-10.807937 18.2105427-3.225754 5.8994709-7.808319 9.9898595-13.987134 12.4773478-6.132257 2.4542331-12.158098 5.1612057-18.057569 8.1009646-1.064166.532083-2.327863.4722237-3.272311-.3724582-.944447-.8380308-1.330207-1.9687073-.904541-3.1858473 2.234749-6.5712258 4.775446-13.1224985 7.668647-19.653818 2.806738-6.3716947 7.888132-10.9808642 14.851769-13.4617015 6.883824-2.440931 13.834159-4.6091695 20.877609-6.4914133 1.363463-.3658071 2.726926.0332552 3.465191.9510985zm129.52897 11.1005828c3.418633 5.2343671 6.59783 10.5219425 9.524287 15.8494242.45227.7116611.498827 1.4964836.25939 2.2746551-.25939.8579839-.718312 1.390067-1.496484 1.8090824-5.327481 2.8000871-10.448781 5.7797522-15.403804 8.9057402-1.137328.7316142-2.49414.6118955-3.405332-.345854-5.440549-5.5868721-11.306765-10.9941662-17.565392-16.1487209-.804775-.7515673-1.21714-1.7226189-1.064166-2.8000871.146323-1.0774682.791474-1.8955459 1.782478-2.3079103 7.595486-3.1924983 15.510222-6.0391427 23.704301-8.4800737 1.390067-.4190154 2.859946.0997655 3.664722 1.2437441zm-120.862667-1.2636972c8.174126 2.4608841 16.055606 5.3008774 23.617836 8.5000268.971052.4123644 1.642807 1.2304421 1.795781 2.3079103.146323 1.0774682-.272693 2.0485198-1.084119 2.8000871-5.774527 4.7863722-11.216434 9.779198-16.309745 14.9305508l-1.169184 1.1915659c-.89789.9710516-2.327863 1.1040724-3.485144.3724582-4.908466-3.132639-10.029766-6.1256062-15.317341-8.9323444-.791474-.4256664-1.21714-.9510985-1.489833-1.8090824-.232786-.7848225-.199531-1.562994.259391-2.261353 2.893201-5.3274816 6.039143-10.6150571 9.437823-15.8361221.811427-1.1439786 2.36777-1.6893637 3.744535-1.2636972z" fill="#b99142"/><path d="m459.117401 305.88277c5.067569 3.04603 10.860277 4.951143 17.256448 5.688398-17.661741 93.262509-95.558815 160.273097-186.178708 167.764368-1.200209-9.39712 5.122051-18.163001 14.477014-19.947553l2.665443-.476125c76.095745-14.056308 136.74418-73.491506 151.362217-150.745885zm-352.73403 56.352381c26.182684 48.808478 73.467475 85.680906 132.019384 96.571465l1.777739.322049.331327.061561c9.351713 1.826571 15.637028 10.628063 14.3881 20.023735-5.926123-.521444-11.878272-1.306644-17.845094-2.358756-65.019088-11.46462-117.561396-52.115018-146.5294711-106.10239 5.7969684-1.852173 10.9964311-4.658847 15.6228241-8.328358zm119.763905-183.217685c7.581137.084437 12.613168 2.884924 13.407093 8.533998 1.380406 9.822099-1.778047 26.618812-3.12594 40.299324l3.323228-.947017.912662-.269573 1.282873-.38761.863101-.267331.856381-.271196c5.417428-1.73568 5.188511-2.056663 10.664738-2.826297 6.872606-.965881 13.279508 10.098967 14.12075 14.696395l.05806.363287.014536.18015.002657.12231-.003553.145094-.012729.167698c-.103004.999451-.772241 2.798501-4.118158 3.556443l-10.552906 2.392166-1.546192.369572-1.596533.39697-.965389.247985-1.354139.357552c-2.447856.656083-5.339281 1.481979-9.201552 2.641265l-3.770671 1.143375.225372 1.603608c15.374055 11.943626 23.134222 23.526442 26.345779 46.377857 5.859683 41.693811-20.946569 72.034518-33.574983 73.809326-.994237.139731-1.950584.213959-2.869677.225598l-.342915.001436c-10.348862-.045071-15.887792-8.141322-17.554139-19.997999-.697246-4.961163-1.152311-10.643408-1.300096-16.583539l-.090645-4.316247c-.487213-27.966013 2.436144-60.883486 2.498069-75.941895l-6.450329 1.552165-5.310269 1.294624-4.973286 1.2279-4.153817 1.038818-3.067871.77629c-4.389715 1.11689-8.576163 2.209679-12.263464 3.213914l-2.076857.571042.225372 1.603608c15.402226 12.144076 21.552285 26.814922 24.200411 45.657317 5.859682 41.693811-20.345216 71.950004-32.773179 73.69664-.994237.139731-1.950584.213958-2.869677.227034h-.342916c-10.348862-.045072-15.887791-8.141322-17.554139-19.998-.760631-5.412177-1.233048-11.682501-1.332733-18.20962-.835089-28.818814 4.02605-56.462783 4.141661-71.560637l.001695-.769677-7.776418-4.426173c-3.773897-2.126947-7.369015-7.345173-7.904274-11.153742l-.195481-1.345568-.025407-.24795c-.219077-2.601316 1.459994-2.978625 17.447754-8.18633l.097232-1.988135.076905-1.8711.044808-1.258276.059019-1.921439.065233-2.650493c.359006-16.743009-.160601-36.552502.381662-44.78556l.446406-.18142.247246-.093502.312503-.113032.600754-.203514c1.180782-.38369 2.94982-.866579 5.095739-1.168169 10.824354-1.521264 18.347228 1.10085 19.333232 8.116636 1.380406 9.822099-.184189 30.687426-1.532083 44.367937l3.523093-.985042 3.64157-1.033542 8.138101-2.33999 11.918762-3.442313 6.135542-1.749409c2.353992-.664224 4.502549-1.259893 6.345233-1.752986l.374906-6.126112.410037-7.322943.647063-12.4996.846683-16.852465c.23-4.430194.438361-8.166943.619709-10.752892l.446406-.18142.545042-.201332.385715-.132882.472188-.153341.533493-.161947c1.126285-.329836 2.60234-.687341 4.319804-.928715 1.968064-.276593 3.826989-.417362 5.557327-.417362zm123.44497 72.993596c3.173635 26.944951-5.029674 71.841647-33.694169 75.870179-1.493986.209966-2.916985.321025-4.271479.339779l-.448964.002842c-7.886997-.009876-13.407882-3.195368-17.069705-8.208238l-.205291-.28569-.015935 2.221994-.000503 2.242552.012694 2.273725.032669 2.942729c.202731 14.661392.985876 31.171007.809733 37.011085-.410653 4.350329-2.214712 4.603873-4.191051 5.08604-.188803.044264-.455523.070261-.787894.079868l-.207202.003813h-.222369c-3.752687-.031431-13.339095-1.564797-17.212921-2.833452l-.370837-.126967c-4.863917-1.156113-1.368496-40.280903.435552-78.350344l-.219579-2.298894-.136791-1.53607c-2.198965-25.387614-2.633225-65.039956 4.035981-65.977252 6.01353-.845146 19.515262 3.594027 19.624698 5.82716-.062843 2.461755-.125687 4.92351.011921 7.357094 4.974433-9.693163 11.430038-16.119516 18.846725-17.161863 21.648709-3.042528 32.772121 15.017564 35.244717 35.51991zm-182.160127 28.871501.006874 1.156268c-.004577 11.879027-2.086881 38.573835-1.725317 62.248015-.125686 4.923511-.110515 10.849276.336979 15.487821l.066101.623432c.474196 4.089941 1.620688 6.831026 3.55054 6.821144l.142776-.005752.145588-.015636c2.605863-.36623 14.064072-16.285295 10.727908-47.295609l-.403472-3.211071-.219549-1.65785-.233499-1.67272-.16675-1.135096-.173492-1.129066c-1.666311-10.595288-4.685811-22.722808-12.054687-30.21388zm-41.534983-26.444212.113127.786493c3.746817 26.659985 3.001377 102.805368-45.5077675 109.622884-2.1167627.297492-4.1740597.457847-6.1723072.490045l-.9942049.00546c-30.6679262-.15923-47.1658648-30.749074-51.0433973-58.339152-5.4652811-38.887496 12.1028829-85.509158 33.8209359-93.876098 4.350329.410653 5.3775054 1.901575 7.6919026 3.82482l.4180105-.280184.5862241-.370607.3543137-.214944.41493-.244229.4794269-.272926.5289653-.290325c2.4881895-1.339932 6.4078955-3.093297 10.770784-3.706461 32.9421189-4.629713 44.7258149 16.953927 48.5390569 42.865224zm107.057543 15.600335.010333 1.229737-.000638 1.689904-.016236 1.983055-.04395 2.909401-.104006 4.837593c-.304029 12.65483-.907361 30.115989-.783813 47.578798l.064479 4.621444.030582 1.722691.04039 1.728643c.069785 2.588745.185116 5.138962.401979 7.386872l.096021.898753.071924.555984c.481149 3.459536 1.467861 5.816203 3.38908 5.793359l.15783-.007643.161978-.017717c2.576584-.362115 13.835244-15.733554 10.669184-46.028425l-.235775-2.142559-.134312-1.11734-.147148-1.129363-.16073-1.140066c-1.593785-10.877291-5.12664-23.024947-13.467172-31.353121zm-149.8960644-43.43036-.2597559.001895c-.3481743.007796-.7036871.036742-1.0666089.087747-15.0338259 2.112867-19.0352552 24.547129-20.129605 40.0317-.0529718.915935-.4894826 1.401244-1.3095326 1.455929l-.158254.005207-.1672432-.004886c-1.3518103-.00307-5.4329386-1.263519-7.0378039-2.27435l-.2564469-.175484.0035996.028949-.0236941.119779-.5416432 2.09272c-1.4229976 5.659724-4.878283 21.639959-2.6335467 43.382288 2.238827 20.075277 9.5518508 35.563337 20.5892573 35.61274l.3497861-.003584c.468028-.011656.9426336-.050885 1.423716-.118497 27.8976092-3.920753 26.0401196-79.845706 24.2637944-97.639223l-.1078497-1.010857c-1.128779-10.756869-5.0971709-21.294061-12.6811588-21.586123zm376.8230234-76.618635.318692.00315c7.357452.110904 16.56342 3.316804 16.997924 6.408466l-1.355479 8.146147-1.31886 8.207685-.853241 5.473804-.728151 4.798432-.687021 4.664714-.473253 3.313801c-1.204834 8.561982-2.18804 16.592226-2.440575 21.485948 4.608203-12.299025 10.694327-19.899913 18.712368-21.026775.914056-.128463 1.833215-.189205 2.754078-.186299l.460558.006739c14.280719.372153 28.834843 15.873078 31.009405 31.345891 2.281895 16.236532.084536 76.233148-31.787175 80.712425-2.656132.373295-5.2087.565142-7.654657.579059l-.5225.00026c-12.674421-.05988-22.444278-4.950618-28.877395-14.173392-4.252724 7.679278-11.608487 14.91414-21.035069 16.23896-1.316939.185084-2.566734.284476-3.752639.305329l-.504343.004149c-15.193669-.018757-19.64968-13.161221-20.53683-23.67592l-.056704-.736432-1.63178.024922-.399391 1.91234-.216374.962142-.236784 1.005642-.254564 1.033466-.181033.708166c-2.752887 10.610576-8.51959 25.80494-18.223855 27.168786-.561263.07888-1.140054.123941-1.733458.136664l-.357772.003764c-11.263676-.002887-27.485678-11.330788-29.286404-24.143616-3.296072-23.452769 1.86363-76.915766 11.284828-78.239829 1.232774-.173255 2.455674-.253138 3.650573-.255728l.397238.001978c6.602519.079932 12.278654 2.490309 13.920186 4.474051l-.46054 2.710936c-3.881324 23.321106-6.839129 53.501695-3.117433 72.685063l.226671 1.115615 2.718549.435574c10.587782-19.203572 17.596075-63.876525 18.370092-84.831014l.031287-.950109c-.053093-1.832231 2.239633-2.972094 5.446849-3.422839.760686-.106907 1.564297-.153189 2.394326-.146449l.312467.004998c7.213738.171431 16.239247 4.216436 16.485582 7.255832l.025199.786322.010108.637466.004329 1.060892-.008358 1.299673-.021295 1.487292c-.248767 14.24035-1.939382 46.852274-.585313 58.994036l.044457.52611.059298.553858.073023.563262.086836.570831c.890837 5.453038 3.663536 11.682366 8.656703 11.610004l.25664-.009193c.17238-.009818.347334-.027065.524876-.052017 7.015786-.986004 9.330299-15.222542 9.90692-19.940665-.137198-.816334-.264746-1.627889-.380627-2.452425-4.760992-33.876221 5.615846-115.667825 10.169876-116.716673 1.288941-.325438 2.781622-.469442 4.368935-.465269zm-140.621543 78.938112-.229739.007512c-.154809.00848-.312929.023945-.474435.046643-10.623904 1.493092-15.424967 35.691121-16.136836 46.624912-.021738.118036-.166134.181447-.393962.20089l-.120685.006107c-1.018195.020332-3.266702-.63441-4.235073-1.28222l-.114197-.080891-.122537 1.196331-.058766.679811c-.189328 2.318241-.418491 6.468734-.104742 10.633086l.09252.90122c1.432512 13.304541 5.540394 23.723882 12.269973 23.672222l.220531-.006013c.221461-.009168.445713-.029575.672754-.061483 16.501128-2.319083 17.02469-51.275254 16.146704-63.688576l-.275473-3.955882-.085722-1.042321-.110285-1.15039-.063856-.587003-.069114-.582229c-.676093-5.453526-2.243447-11.375573-6.582231-11.528947zm172.598773-22.398272-.206341.001182c-.209342.005477-.427741.023911-.655643.05594-11.024806 1.549436-16.652594 34.228371-16.907218 45.506721.02465.175395-.564581.437065-.84656.518614l-.099352.023146-3.348074-.551511c.200451-.028171-1.078099 8.327928.408493 21.814489.790087 6.986714 4.407665 12.316632 9.323145 12.316632l.242785-.004275c.243818-.008602.490714-.030238.740507-.065345 20.02706-2.814619 17.019904-62.783491 16.538625-68.391499l-.298824-2.830857-.100996-.831234-.066349-.494088-.078452-.532784-.08781-.535844c-.566728-3.268001-1.621752-5.832467-4.357532-5.991975zm-182.913695-137.3847359c57.570881 10.1512996 105.359787 43.1846679 135.662843 88.0978289-.175798.788501-.351315 1.618068-.527202 2.487318l-.131994.659357-.247856 1.275237-.235398 1.255236-.270633 1.495669-.270155 1.548918c-.944329 5.511719-1.873913 11.959667-2.726076 18.900522-26.317905-49.84918-74.566431-87.4469419-134.379196-97.9935463-90.215522-15.9074305-176.757452 35.0121863-208.8408692 117.1988643-5.6900651-1.222626-11.9853445-1.454823-18.861025-.659333l-.108031.009219c33.2277152-93.470948 129.9815682-152.0762082 230.9355922-134.2752899zm-35.962005-69.1447951c.488862 0 .88644.28215189 1.071021.69051142l.044967.11438273 6.039176 18.73971355 19.687809-.029628c.498738 0 .967848.311094 1.115988.7999561.149375.4300176 0 .9056774-.337821 1.2253929l-.096723.0831773-15.939867 11.5203562 6.123121 18.7199615c.153079.4938001-.019752 1.0122902-.424668 1.2986942-.22221.1530781-.434544.2073961-.686382.2172721-.19752 0-.391879-.0410842-.560325-.1358938l-.121119-.0813783-15.915177-11.5894881-15.885549 11.5894881c-.404916.3061561-.957972.3061561-1.35795 0-.371173-.262537-.555628-.7200908-.473491-1.1748784l.029071-.1238158 6.137935-18.7199615-15.949743-11.5203562c-.399978-.311094-.582684-.8394601-.429606-1.3085702.140321-.4435971.542048-.7461182.992184-.7934579l.123804-.0064982 19.66312.029628 6.063865-18.73971355c.158016-.46911009.587622-.80489415 1.08636-.80489415z" fill="#fcf4d7"/></g></svg>