<svg height="258" viewBox="0 0 700 258" width="700" xmlns="http://www.w3.org/2000/svg"><path d="m757.692684 371c-5.62866 0-9.113069 2.680314-9.917163 8.308974l-30.019518 170.73601c-1.340157 8.577006-.536063 10.721257 7.236848 14.741728 12.597476 5.62866 28.143298 8.577005 47.173529 8.577005 40.472743 0 63.523445-18.226136 69.688167-54.410377l6.700786-36.452272c6.432754-35.112115-8.577005-56.018565-45.833372-56.018565-8.040942 0-19.03023 1.608188-32.967864 4.556534l9.113068-51.730063c1.072126-6.164723-.536063-8.308974-6.700785-8.308974zm53.874314 144.736963c-3.484409 19.566294-15.813854 29.215425-36.988335 29.215425-8.845037 0-16.349917-1.072126-22.246608-3.216377-1.340157-.536063-1.608188-1.608189-1.340157-2.948346l13.937634-79.873361c9.917162-3.216377 19.566293-4.824566 28.41133-4.824566 19.03023 0 27.339204 8.845037 24.390858 26.53511zm-113.578312-85.233989c-6.164722 0-8.577005 1.87622-9.649131 8.040942l-17.422042 98.635561c-.268031 2.412282-1.608188 3.752439-3.75244 4.556534-7.236848 2.144251-15.813853 3.216377-25.194952 3.216377-19.566294 0-27.607236-8.845037-24.390859-26.53511l13.937633-79.873362c1.072126-6.164722-.536062-8.040942-6.700785-8.040942h-14.473696c-6.432754 0-8.845037 1.87622-9.917163 8.040942l-13.669602 78.801236c-6.164722 35.112115 8.845037 56.018565 46.101404 56.018565 19.298261 0 37.256366-3.216377 54.142345-9.381099 8.845037-3.484408 11.257319-6.432754 13.133539-15.009759l19.298262-110.428943c1.072126-6.164722-.536063-8.040942-6.700785-8.040942zm-221.695483 3.75244c-8.845037 3.484408-11.257319 6.700785-13.133539 15.27779l-30.019519 170.467979c-1.072125 6.164723.536063 8.308974 6.700786 8.308974h14.473696c5.62866 0 9.113068-2.680314 9.917162-8.308974l9.113068-51.462031c11.525351 3.216377 20.638419 4.824565 27.339205 4.824565 39.93668 0 62.71935-17.958104 68.884073-54.142345l6.700785-36.452272c6.432754-35.380147-9.113068-56.286597-46.637466-56.286597-20.638419 0-38.596523 2.680314-53.338251 7.772911zm62.987382 82.017612c-3.75244 19.030231-15.813853 28.679362-36.184241 28.679362-6.700785 0-15.009759-1.340157-24.926921-4.020472l13.937633-79.60533c.536063-1.876219 1.608189-2.948345 3.216377-3.484408 7.236848-1.87622 15.545822-2.948345 24.926922-2.948345 19.834324 0 28.143298 8.845036 25.194953 26.53511zm-150.834678-85.770052.268031-2.680314c6.700786-37.524398 27.339205-56.018566 67.275885-56.82266h4.288503c6.432754 0 8.040942 2.144251 6.968817 8.577005l-2.144252 10.721257c-1.072125 6.432754-3.484408 8.308974-9.917162 8.308974-23.318733 0-31.895738 8.577005-35.380147 29.215424l-.268031 2.680314h30.555581c6.164723 0 7.772911 1.87622 6.700786 8.040942l-2.144252 12.329445c-1.072125 6.164723-3.216377 8.308974-9.381099 8.308974h-30.823613l-17.958105 101.851937c-1.072125 6.164723-3.484408 8.308974-9.917162 8.308974h-14.205665c-6.432754 0-8.040942-2.144251-6.968817-8.308974l17.958105-101.851937h-42.14794l-17.958104 101.851937c-1.072126 6.164723-3.484409 8.308974-9.917163 8.308974h-14.205665c-6.432754 0-8.040942-2.144251-6.968816-8.308974l17.958104-101.851937h-16.081885c-6.164722 0-8.040942-2.144251-6.968816-8.308974l2.144251-12.329445c1.340157-6.164722 3.75244-8.040942 9.917162-8.040942h16.081885l.268032-2.680314c6.700785-37.524398 27.339204-56.018566 67.275884-56.82266h4.288503c6.432754 0 8.040943 2.144251 6.968817 8.577005l-2.144251 10.721257c-1.072126 6.432754-3.484409 8.308974-9.917163 8.308974-23.318733 0-31.895738 8.577005-35.380146 29.215424l-.268032 2.680314zm-237.475833 88.450366c-5.628659 33.503927 13.401571 54.410377 52.802189 54.410377 39.936681 0 64.327539-18.494167 70.492262-51.998094l6.968816-39.668649c5.62866-34.03999-12.865507-55.214471-52.534157-55.214471-39.400617 0-64.59557 19.298261-70.760293 52.802188zm92.470838.804095c-2.948345 16.081885-15.813853 25.462984-35.380147 25.462984-19.566293 0-28.947392-9.381099-25.999047-25.462984l6.968817-39.66865c2.948346-16.349916 15.545822-25.462984 35.112115-25.462984 19.566294 0 29.215424 9.113068 26.267079 25.462984z" fill="#02a388" fill-rule="evenodd" transform="translate(-150 -371)"/></svg>