<svg viewBox="0 0 400 148" xmlns="http://www.w3.org/2000/svg"><g fill="none" fill-rule="evenodd"><path d="m397.25 176c-3.216 0-5.207 1.532-5.667 4.748l-17.15 97.56c-.766 4.901-.306 6.126 4.135 8.424 7.199 3.216 16.08 4.901 26.956 4.901 23.13 0 36.3-10.415 39.822-31.09l3.829-20.83c3.676-20.06-4.901-32.01-26.19-32.01-4.595 0-10.874.919-18.839 2.604l5.207-29.56c.613-3.523-.306-4.748-3.829-4.748h-8.271m30.785 82.71c-1.991 11.181-9.04 16.695-21.14 16.695-5.05 0-9.343-.613-12.712-1.838-.766-.306-.919-.919-.766-1.685l7.964-45.642c5.667-1.838 11.181-2.757 16.235-2.757 10.874 0 15.622 5.05 13.938 15.16l-3.523 20.06m-64.902-48.705c-3.523 0-4.901 1.072-5.514 4.595l-9.955 56.36c-.153 1.378-.919 2.144-2.144 2.604-4.135 1.225-9.04 1.838-14.397 1.838-11.181 0-15.776-5.05-13.938-15.16l7.964-45.642c.613-3.523-.306-4.595-3.829-4.595h-8.271c-3.676 0-5.05 1.072-5.667 4.595l-7.811 45.03c-3.523 20.06 5.05 32.01 26.344 32.01 11.03 0 21.289-1.838 30.938-5.361 5.05-1.991 6.433-3.676 7.505-8.577l11.03-63.1c.613-3.523-.306-4.595-3.829-4.595h-8.424m-126.68 2.144c-5.05 1.991-6.433 3.829-7.505 8.73l-17.15 97.41c-.613 3.523.306 4.748 3.829 4.748h8.271c3.216 0 5.207-1.532 5.667-4.748l5.207-29.407c6.586 1.838 11.793 2.757 15.622 2.757 22.821 0 35.84-10.262 39.36-30.938l3.829-20.83c3.676-20.22-5.207-32.16-26.65-32.16-11.793 0-22.06 1.532-30.479 4.442m35.993 46.867c-2.144 10.874-9.04 16.388-20.677 16.388-3.829 0-8.577-.766-14.244-2.297l7.964-45.49c.306-1.072.919-1.685 1.838-1.991 4.135-1.072 8.883-1.685 14.244-1.685 11.334 0 16.08 5.05 14.397 15.16l-3.523 19.911m-86.19-49.01l.153-1.532c3.829-21.443 15.622-32.01 38.443-32.47h2.451c3.676 0 4.595 1.225 3.982 4.901l-1.225 6.126c-.613 3.676-1.991 4.748-5.667 4.748-13.325 0-18.226 4.901-20.22 16.695l-.153 1.532h17.46c3.523 0 4.442 1.072 3.829 4.595l-1.225 7.05c-.613 3.523-1.838 4.748-5.361 4.748h-17.613l-10.262 58.2c-.613 3.523-1.991 4.748-5.667 4.748h-8.118c-3.676 0-4.595-1.225-3.982-4.748l10.262-58.2h-24.08l-10.262 58.2c-.613 3.523-1.991 4.748-5.667 4.748h-8.118c-3.676 0-4.595-1.225-3.982-4.748l10.262-58.2h-9.19c-3.523 0-4.595-1.225-3.982-4.748l1.225-7.05c.766-3.523 2.144-4.595 5.667-4.595h9.19l.153-1.532c3.829-21.443 15.622-32.01 38.443-32.47h2.451c3.676 0 4.595 1.225 3.982 4.901l-1.225 6.126c-.613 3.676-1.991 4.748-5.667 4.748-13.325 0-18.226 4.901-20.22 16.695l-.153 1.532h24.08m-135.7 50.54c-3.216 19.15 7.658 31.09 30.17 31.09 22.821 0 36.759-10.568 40.28-29.713l3.982-22.668c3.216-19.451-7.352-31.551-30.02-31.551-22.515 0-36.912 11.03-40.43 30.17l-3.982 22.668m52.84.459c-1.685 9.19-9.04 14.55-20.22 14.55-11.181 0-16.541-5.361-14.857-14.55l3.982-22.668c1.685-9.343 8.883-14.55 20.06-14.55 11.181 0 16.695 5.207 15.01 14.55l-3.982 22.668" transform="translate(-50-176)" fill="#00ba84"/></g></svg>